<?xml version="1.0" encoding="UTF-8"?>
<svg xmlns="http://www.w3.org/2000/svg" xmlns:xlink="http://www.w3.org/1999/xlink" width="1920" height="1080" viewBox="0 0 1920 1080" font-family="Arial,Liberation Sans,Helvetica,sans-serif">
  <rect width="1920" height="1080" fill="#ffffff"/>
  <rect width="14" height="1080" fill="#475569"/>
  <text x="64" y="70" font-size="42" font-weight="700" fill="#0f172a">Master Data</text>
  <text x="64" y="106" font-size="20" fill="#64748b">Organisasi, pengguna, dan klasifikasi  ·  7 tabel  ·  6 relasi  ·  dipakai oleh: Tiket &amp; Helpdesk, Manajemen Aset, Preventive Maintenance &amp; Checklist</text>
  <g transform="translate(84.75 169.75) scale(1.5000)">
<g id="graph0" class="graph" transform="scale(1 1) rotate(0) translate(18 513.4)">
<title>ERD</title>
<!-- bagian_departemen -->
<g id="node1" class="node">
<title>bagian_departemen</title>
<polygon fill="#475569" stroke="none" points="337.58,-208 337.58,-244.4 553.4,-244.4 553.4,-208 337.58,-208"/>
<polygon fill="none" stroke="#cbd5e1" points="337.58,-208 337.58,-244.4 553.4,-244.4 553.4,-208 337.58,-208"/>
<text xml:space="preserve" text-anchor="start" x="365.19" y="-222.1" font-family="Arial,Liberation Sans,Helvetica,sans-serif" font-weight="bold" font-size="17.00" fill="#ffffff">bagian_departemen</text>
<polygon fill="#fef2f2" stroke="none" points="337.58,-180 337.58,-208 553.4,-208 553.4,-180 337.58,-180"/>
<polygon fill="none" stroke="#cbd5e1" points="337.58,-180 337.58,-208 553.4,-208 553.4,-180 337.58,-180"/>
<text xml:space="preserve" text-anchor="start" x="342.58" y="-190.5" font-family="Arial,Liberation Sans,Helvetica,sans-serif" font-weight="bold" font-size="11.00" fill="#b91c1c">PK</text>
<text xml:space="preserve" text-anchor="start" x="357.86" y="-190.5" font-family="Arial,Liberation Sans,Helvetica,sans-serif" font-size="14.00">  </text>
<text xml:space="preserve" text-anchor="start" x="373.42" y="-190.5" font-family="Arial,Liberation Sans,Helvetica,sans-serif" font-weight="bold" font-size="15.00" fill="#b91c1c">id_bagian</text>
<text xml:space="preserve" text-anchor="start" x="443.44" y="-190.5" font-family="Arial,Liberation Sans,Helvetica,sans-serif" font-size="14.00">  </text>
<text xml:space="preserve" text-anchor="start" x="458.99" y="-190.5" font-family="Arial,Liberation Sans,Helvetica,sans-serif" font-size="12.00" fill="#94a3b8">INTEGER</text>
<polygon fill="#eff6ff" stroke="none" points="337.58,-152 337.58,-180 553.4,-180 553.4,-152 337.58,-152"/>
<polygon fill="none" stroke="#cbd5e1" points="337.58,-152 337.58,-180 553.4,-180 553.4,-152 337.58,-152"/>
<text xml:space="preserve" text-anchor="start" x="342.58" y="-162.5" font-family="Arial,Liberation Sans,Helvetica,sans-serif" font-weight="bold" font-size="11.00" fill="#0369a1">FK</text>
<text xml:space="preserve" text-anchor="start" x="357.25" y="-162.5" font-family="Arial,Liberation Sans,Helvetica,sans-serif" font-size="14.00">  </text>
<text xml:space="preserve" text-anchor="start" x="372.81" y="-162.5" font-family="Arial,Liberation Sans,Helvetica,sans-serif" font-weight="bold" font-size="15.00" fill="#0369a1">id_departemen</text>
<text xml:space="preserve" text-anchor="start" x="479.51" y="-162.5" font-family="Arial,Liberation Sans,Helvetica,sans-serif" font-size="14.00">  </text>
<text xml:space="preserve" text-anchor="start" x="495.06" y="-162.5" font-family="Arial,Liberation Sans,Helvetica,sans-serif" font-size="12.00" fill="#94a3b8">INTEGER</text>
<polygon fill="#ffffff" stroke="none" points="337.58,-124 337.58,-152 553.4,-152 553.4,-124 337.58,-124"/>
<polygon fill="none" stroke="#cbd5e1" points="337.58,-124 337.58,-152 553.4,-152 553.4,-124 337.58,-124"/>
<text xml:space="preserve" text-anchor="start" x="342.58" y="-134.5" font-family="Arial,Liberation Sans,Helvetica,sans-serif" font-size="15.00" fill="#334155">nama_bagian</text>
<text xml:space="preserve" text-anchor="start" x="433.49" y="-134.5" font-family="Arial,Liberation Sans,Helvetica,sans-serif" font-size="14.00">  </text>
<text xml:space="preserve" text-anchor="start" x="449.05" y="-134.5" font-family="Arial,Liberation Sans,Helvetica,sans-serif" font-size="12.00" fill="#94a3b8">NVARCHAR(50)</text>
</g>
<!-- karyawan -->
<g id="node4" class="node">
<title>karyawan</title>
<polygon fill="#475569" stroke="none" points="650.83,-375.8 650.83,-412.2 866.65,-412.2 866.65,-375.8 650.83,-375.8"/>
<polygon fill="none" stroke="#cbd5e1" points="650.83,-375.8 650.83,-412.2 866.65,-412.2 866.65,-375.8 650.83,-375.8"/>
<text xml:space="preserve" text-anchor="start" x="719.99" y="-389.9" font-family="Arial,Liberation Sans,Helvetica,sans-serif" font-weight="bold" font-size="17.00" fill="#ffffff">karyawan</text>
<polygon fill="#fef2f2" stroke="none" points="650.83,-347.8 650.83,-375.8 866.65,-375.8 866.65,-347.8 650.83,-347.8"/>
<polygon fill="none" stroke="#cbd5e1" points="650.83,-347.8 650.83,-375.8 866.65,-375.8 866.65,-347.8 650.83,-347.8"/>
<text xml:space="preserve" text-anchor="start" x="655.83" y="-358.3" font-family="Arial,Liberation Sans,Helvetica,sans-serif" font-weight="bold" font-size="11.00" fill="#b91c1c">PK</text>
<text xml:space="preserve" text-anchor="start" x="671.11" y="-358.3" font-family="Arial,Liberation Sans,Helvetica,sans-serif" font-size="14.00">  </text>
<text xml:space="preserve" text-anchor="start" x="686.67" y="-358.3" font-family="Arial,Liberation Sans,Helvetica,sans-serif" font-weight="bold" font-size="15.00" fill="#b91c1c">nik</text>
<text xml:space="preserve" text-anchor="start" x="708.34" y="-358.3" font-family="Arial,Liberation Sans,Helvetica,sans-serif" font-size="14.00">  </text>
<text xml:space="preserve" text-anchor="start" x="723.9" y="-358.3" font-family="Arial,Liberation Sans,Helvetica,sans-serif" font-size="12.00" fill="#94a3b8">NVARCHAR(10)</text>
<polygon fill="#ffffff" stroke="none" points="650.83,-319.8 650.83,-347.8 866.65,-347.8 866.65,-319.8 650.83,-319.8"/>
<polygon fill="none" stroke="#cbd5e1" points="650.83,-319.8 650.83,-347.8 866.65,-347.8 866.65,-319.8 650.83,-319.8"/>
<text xml:space="preserve" text-anchor="start" x="655.83" y="-330.3" font-family="Arial,Liberation Sans,Helvetica,sans-serif" font-size="15.00" fill="#334155">nama</text>
<text xml:space="preserve" text-anchor="start" x="693.35" y="-330.3" font-family="Arial,Liberation Sans,Helvetica,sans-serif" font-size="14.00">  </text>
<text xml:space="preserve" text-anchor="start" x="708.91" y="-330.3" font-family="Arial,Liberation Sans,Helvetica,sans-serif" font-size="12.00" fill="#94a3b8">NVARCHAR(100)</text>
<polygon fill="#ffffff" stroke="none" points="650.83,-291.8 650.83,-319.8 866.65,-319.8 866.65,-291.8 650.83,-291.8"/>
<polygon fill="none" stroke="#cbd5e1" points="650.83,-291.8 650.83,-319.8 866.65,-319.8 866.65,-291.8 650.83,-291.8"/>
<text xml:space="preserve" text-anchor="start" x="655.83" y="-302.3" font-family="Arial,Liberation Sans,Helvetica,sans-serif" font-size="15.00" fill="#334155">tanda_tangan</text>
<text xml:space="preserve" text-anchor="start" x="747.59" y="-302.3" font-family="Arial,Liberation Sans,Helvetica,sans-serif" font-size="14.00">  </text>
<text xml:space="preserve" text-anchor="start" x="763.14" y="-302.3" font-family="Arial,Liberation Sans,Helvetica,sans-serif" font-size="12.00" fill="#94a3b8">NVARCHAR(255)</text>
<polygon fill="#ffffff" stroke="none" points="650.83,-263.8 650.83,-291.8 866.65,-291.8 866.65,-263.8 650.83,-263.8"/>
<polygon fill="none" stroke="#cbd5e1" points="650.83,-263.8 650.83,-291.8 866.65,-291.8 866.65,-263.8 650.83,-263.8"/>
<text xml:space="preserve" text-anchor="start" x="655.83" y="-274.3" font-family="Arial,Liberation Sans,Helvetica,sans-serif" font-size="15.00" fill="#334155">alamat</text>
<text xml:space="preserve" text-anchor="start" x="700.85" y="-274.3" font-family="Arial,Liberation Sans,Helvetica,sans-serif" font-size="14.00">  </text>
<text xml:space="preserve" text-anchor="start" x="716.41" y="-274.3" font-family="Arial,Liberation Sans,Helvetica,sans-serif" font-size="12.00" fill="#94a3b8">NVARCHAR(150)</text>
<polygon fill="#ffffff" stroke="none" points="650.83,-235.8 650.83,-263.8 866.65,-263.8 866.65,-235.8 650.83,-235.8"/>
<polygon fill="none" stroke="#cbd5e1" points="650.83,-235.8 650.83,-263.8 866.65,-263.8 866.65,-235.8 650.83,-235.8"/>
<text xml:space="preserve" text-anchor="start" x="655.83" y="-246.3" font-family="Arial,Liberation Sans,Helvetica,sans-serif" font-size="15.00" fill="#334155">jenis_kelamin</text>
<text xml:space="preserve" text-anchor="start" x="746.71" y="-246.3" font-family="Arial,Liberation Sans,Helvetica,sans-serif" font-size="14.00">  </text>
<text xml:space="preserve" text-anchor="start" x="762.27" y="-246.3" font-family="Arial,Liberation Sans,Helvetica,sans-serif" font-size="12.00" fill="#94a3b8">NVARCHAR(9)</text>
<polygon fill="#eff6ff" stroke="none" points="650.83,-207.8 650.83,-235.8 866.65,-235.8 866.65,-207.8 650.83,-207.8"/>
<polygon fill="none" stroke="#cbd5e1" points="650.83,-207.8 650.83,-235.8 866.65,-235.8 866.65,-207.8 650.83,-207.8"/>
<text xml:space="preserve" text-anchor="start" x="655.83" y="-218.3" font-family="Arial,Liberation Sans,Helvetica,sans-serif" font-weight="bold" font-size="11.00" fill="#0369a1">FK</text>
<text xml:space="preserve" text-anchor="start" x="670.49" y="-218.3" font-family="Arial,Liberation Sans,Helvetica,sans-serif" font-size="14.00">  </text>
<text xml:space="preserve" text-anchor="start" x="686.05" y="-218.3" font-family="Arial,Liberation Sans,Helvetica,sans-serif" font-weight="bold" font-size="15.00" fill="#0369a1">id_departemen</text>
<text xml:space="preserve" text-anchor="start" x="792.75" y="-218.3" font-family="Arial,Liberation Sans,Helvetica,sans-serif" font-size="14.00">  </text>
<text xml:space="preserve" text-anchor="start" x="808.31" y="-218.3" font-family="Arial,Liberation Sans,Helvetica,sans-serif" font-size="12.00" fill="#94a3b8">INTEGER</text>
<polygon fill="#eff6ff" stroke="none" points="650.83,-179.8 650.83,-207.8 866.65,-207.8 866.65,-179.8 650.83,-179.8"/>
<polygon fill="none" stroke="#cbd5e1" points="650.83,-179.8 650.83,-207.8 866.65,-207.8 866.65,-179.8 650.83,-179.8"/>
<text xml:space="preserve" text-anchor="start" x="655.83" y="-190.3" font-family="Arial,Liberation Sans,Helvetica,sans-serif" font-weight="bold" font-size="11.00" fill="#0369a1">FK</text>
<text xml:space="preserve" text-anchor="start" x="670.49" y="-190.3" font-family="Arial,Liberation Sans,Helvetica,sans-serif" font-size="14.00">  </text>
<text xml:space="preserve" text-anchor="start" x="686.05" y="-190.3" font-family="Arial,Liberation Sans,Helvetica,sans-serif" font-weight="bold" font-size="15.00" fill="#0369a1">id_bagian</text>
<text xml:space="preserve" text-anchor="start" x="756.06" y="-190.3" font-family="Arial,Liberation Sans,Helvetica,sans-serif" font-size="14.00">  </text>
<text xml:space="preserve" text-anchor="start" x="771.62" y="-190.3" font-family="Arial,Liberation Sans,Helvetica,sans-serif" font-size="12.00" fill="#94a3b8">INTEGER</text>
<polygon fill="#eff6ff" stroke="none" points="650.83,-151.8 650.83,-179.8 866.65,-179.8 866.65,-151.8 650.83,-151.8"/>
<polygon fill="none" stroke="#cbd5e1" points="650.83,-151.8 650.83,-179.8 866.65,-179.8 866.65,-151.8 650.83,-151.8"/>
<text xml:space="preserve" text-anchor="start" x="655.83" y="-162.3" font-family="Arial,Liberation Sans,Helvetica,sans-serif" font-weight="bold" font-size="11.00" fill="#0369a1">FK</text>
<text xml:space="preserve" text-anchor="start" x="670.49" y="-162.3" font-family="Arial,Liberation Sans,Helvetica,sans-serif" font-size="14.00">  </text>
<text xml:space="preserve" text-anchor="start" x="686.05" y="-162.3" font-family="Arial,Liberation Sans,Helvetica,sans-serif" font-weight="bold" font-size="15.00" fill="#0369a1">id_jabatan</text>
<text xml:space="preserve" text-anchor="start" x="760.24" y="-162.3" font-family="Arial,Liberation Sans,Helvetica,sans-serif" font-size="14.00">  </text>
<text xml:space="preserve" text-anchor="start" x="775.79" y="-162.3" font-family="Arial,Liberation Sans,Helvetica,sans-serif" font-size="12.00" fill="#94a3b8">INTEGER</text>
<polygon fill="#f8fafc" stroke="none" points="650.83,-126.2 650.83,-151.8 866.65,-151.8 866.65,-126.2 650.83,-126.2"/>
<polygon fill="none" stroke="#cbd5e1" points="650.83,-126.2 650.83,-151.8 866.65,-151.8 866.65,-126.2 650.83,-126.2"/>
<text xml:space="preserve" text-anchor="start" x="655.83" y="-136.1" font-family="Arial,Liberation Sans,Helvetica,sans-serif" font-style="italic" font-size="13.00" fill="#94a3b8">… +2 kolom lainnya</text>
</g>
<!-- bagian_departemen&#45;&gt;karyawan -->
<g id="edge1" class="edge">
<title>bagian_departemen:e&#45;&gt;karyawan:w</title>
<path fill="none" stroke="#64748b" stroke-width="1.4" d="M558.33,-194C595.02,-193.99 607.47,-193.83 642.06,-193.8"/>
<polygon fill="#64748b" stroke="#64748b" stroke-width="1.4" points="555.25,-198.25 555.25,-189.75 556.95,-189.75 556.95,-198.25 555.25,-198.25"/>
<polyline fill="none" stroke="#64748b" stroke-width="1.4" points="554.4,-194 558.65,-194"/>
<polygon fill="#64748b" stroke="#64748b" stroke-width="1.4" points="641.86,-193.8 650.36,-197.63 646.58,-193.8 649.89,-193.8 649.89,-193.8 649.89,-193.8 646.58,-193.8 650.36,-189.98 641.86,-193.8"/>
</g>
<!-- departemen -->
<g id="node2" class="node">
<title>departemen</title>
<polygon fill="#475569" stroke="none" points="0,-227 0,-263.4 240.16,-263.4 240.16,-227 0,-227"/>
<polygon fill="none" stroke="#cbd5e1" points="0,-227 0,-263.4 240.16,-263.4 240.16,-227 0,-227"/>
<text xml:space="preserve" text-anchor="start" x="71.9" y="-241.1" font-family="Arial,Liberation Sans,Helvetica,sans-serif" font-weight="bold" font-size="17.00" fill="#ffffff">departemen</text>
<polygon fill="#fef2f2" stroke="none" points="0,-199 0,-227 240.16,-227 240.16,-199 0,-199"/>
<polygon fill="none" stroke="#cbd5e1" points="0,-199 0,-227 240.16,-227 240.16,-199 0,-199"/>
<text xml:space="preserve" text-anchor="start" x="5" y="-209.5" font-family="Arial,Liberation Sans,Helvetica,sans-serif" font-weight="bold" font-size="11.00" fill="#b91c1c">PK</text>
<text xml:space="preserve" text-anchor="start" x="20.28" y="-209.5" font-family="Arial,Liberation Sans,Helvetica,sans-serif" font-size="14.00">  </text>
<text xml:space="preserve" text-anchor="start" x="35.84" y="-209.5" font-family="Arial,Liberation Sans,Helvetica,sans-serif" font-weight="bold" font-size="15.00" fill="#b91c1c">id_departemen</text>
<text xml:space="preserve" text-anchor="start" x="142.54" y="-209.5" font-family="Arial,Liberation Sans,Helvetica,sans-serif" font-size="14.00">  </text>
<text xml:space="preserve" text-anchor="start" x="158.1" y="-209.5" font-family="Arial,Liberation Sans,Helvetica,sans-serif" font-size="12.00" fill="#94a3b8">INTEGER</text>
<polygon fill="#ffffff" stroke="none" points="0,-171 0,-199 240.16,-199 240.16,-171 0,-171"/>
<polygon fill="none" stroke="#cbd5e1" points="0,-171 0,-199 240.16,-199 240.16,-171 0,-171"/>
<text xml:space="preserve" text-anchor="start" x="5" y="-181.5" font-family="Arial,Liberation Sans,Helvetica,sans-serif" font-size="15.00" fill="#334155">nama_departemen</text>
<text xml:space="preserve" text-anchor="start" x="130.92" y="-181.5" font-family="Arial,Liberation Sans,Helvetica,sans-serif" font-size="14.00">  </text>
<text xml:space="preserve" text-anchor="start" x="146.48" y="-181.5" font-family="Arial,Liberation Sans,Helvetica,sans-serif" font-size="12.00" fill="#94a3b8">NVARCHAR(50)</text>
</g>
<!-- departemen&#45;&gt;bagian_departemen -->
<g id="edge2" class="edge">
<title>departemen:e&#45;&gt;bagian_departemen:w</title>
<path fill="none" stroke="#64748b" stroke-width="1.4" d="M244.23,-212.88C285.03,-210.46 289.81,-171.7 327.92,-166.56"/>
<polygon fill="#64748b" stroke="#64748b" stroke-width="1.4" points="241.13,-217.22 240.88,-208.73 242.58,-208.68 242.83,-217.17 241.13,-217.22"/>
<polyline fill="none" stroke="#64748b" stroke-width="1.4" points="240.16,-213 244.41,-212.88"/>
<polygon fill="#64748b" stroke="#64748b" stroke-width="1.4" points="327.63,-166.58 336.36,-169.85 332.34,-166.27 335.65,-166.06 335.65,-166.06 335.65,-166.06 332.34,-166.27 335.87,-162.21 327.63,-166.58"/>
</g>
<!-- departemen&#45;&gt;karyawan -->
<g id="edge3" class="edge">
<title>departemen:e&#45;&gt;karyawan:w</title>
<path fill="none" stroke="#64748b" stroke-width="1.4" d="M244.32,-213.13C281.02,-215.52 281.12,-249.7 319.16,-260.2 427.41,-290.08 462.39,-285.39 571.83,-260.2 606.75,-252.16 611.23,-226.52 641.93,-222.37"/>
<polygon fill="#64748b" stroke="#64748b" stroke-width="1.4" points="240.87,-217.27 241.14,-208.78 242.84,-208.83 242.57,-217.33 240.87,-217.27"/>
<polyline fill="none" stroke="#64748b" stroke-width="1.4" points="240.16,-213 244.41,-213.13"/>
<polygon fill="#64748b" stroke="#64748b" stroke-width="1.4" points="641.88,-222.37 650.61,-225.65 646.59,-222.07 649.89,-221.86 649.89,-221.86 649.89,-221.86 646.59,-222.07 650.12,-218.01 641.88,-222.37"/>
</g>
<!-- jabatan -->
<g id="node3" class="node">
<title>jabatan</title>
<polygon fill="#475569" stroke="none" points="340.83,-56 340.83,-92.4 550.15,-92.4 550.15,-56 340.83,-56"/>
<polygon fill="none" stroke="#cbd5e1" points="340.83,-56 340.83,-92.4 550.15,-92.4 550.15,-56 340.83,-56"/>
<text xml:space="preserve" text-anchor="start" x="415.73" y="-70.1" font-family="Arial,Liberation Sans,Helvetica,sans-serif" font-weight="bold" font-size="17.00" fill="#ffffff">jabatan</text>
<polygon fill="#fef2f2" stroke="none" points="340.83,-28 340.83,-56 550.15,-56 550.15,-28 340.83,-28"/>
<polygon fill="none" stroke="#cbd5e1" points="340.83,-28 340.83,-56 550.15,-56 550.15,-28 340.83,-28"/>
<text xml:space="preserve" text-anchor="start" x="345.83" y="-38.5" font-family="Arial,Liberation Sans,Helvetica,sans-serif" font-weight="bold" font-size="11.00" fill="#b91c1c">PK</text>
<text xml:space="preserve" text-anchor="start" x="361.12" y="-38.5" font-family="Arial,Liberation Sans,Helvetica,sans-serif" font-size="14.00">  </text>
<text xml:space="preserve" text-anchor="start" x="376.67" y="-38.5" font-family="Arial,Liberation Sans,Helvetica,sans-serif" font-weight="bold" font-size="15.00" fill="#b91c1c">id_jabatan</text>
<text xml:space="preserve" text-anchor="start" x="450.86" y="-38.5" font-family="Arial,Liberation Sans,Helvetica,sans-serif" font-size="14.00">  </text>
<text xml:space="preserve" text-anchor="start" x="466.42" y="-38.5" font-family="Arial,Liberation Sans,Helvetica,sans-serif" font-size="12.00" fill="#94a3b8">INTEGER</text>
<polygon fill="#ffffff" stroke="none" points="340.83,0 340.83,-28 550.15,-28 550.15,0 340.83,0"/>
<polygon fill="none" stroke="#cbd5e1" points="340.83,0 340.83,-28 550.15,-28 550.15,0 340.83,0"/>
<text xml:space="preserve" text-anchor="start" x="345.83" y="-10.5" font-family="Arial,Liberation Sans,Helvetica,sans-serif" font-size="15.00" fill="#334155">nama_jabatan</text>
<text xml:space="preserve" text-anchor="start" x="440.91" y="-10.5" font-family="Arial,Liberation Sans,Helvetica,sans-serif" font-size="14.00">  </text>
<text xml:space="preserve" text-anchor="start" x="456.47" y="-10.5" font-family="Arial,Liberation Sans,Helvetica,sans-serif" font-size="12.00" fill="#94a3b8">NVARCHAR(50)</text>
</g>
<!-- jabatan&#45;&gt;karyawan -->
<g id="edge4" class="edge">
<title>jabatan:e&#45;&gt;karyawan:w</title>
<path fill="none" stroke="#64748b" stroke-width="1.4" d="M555.16,-42.14C617.16,-46.57 584.96,-154.89 641.78,-165.04"/>
<polygon fill="#64748b" stroke="#64748b" stroke-width="1.4" points="551.85,-46.28 552.15,-37.78 553.85,-37.84 553.55,-46.34 551.85,-46.28"/>
<polyline fill="none" stroke="#64748b" stroke-width="1.4" points="551.15,-42 555.4,-42.15"/>
<polygon fill="#64748b" stroke="#64748b" stroke-width="1.4" points="641.89,-165.05 650.04,-169.57 646.59,-165.44 649.89,-165.72 649.89,-165.72 649.89,-165.72 646.59,-165.44 650.68,-161.95 641.89,-165.05"/>
</g>
<!-- user -->
<g id="node7" class="node">
<title>user</title>
<polygon fill="#475569" stroke="none" points="945.65,-459 945.65,-495.4 1130.76,-495.4 1130.76,-459 945.65,-459"/>
<polygon fill="none" stroke="#cbd5e1" points="945.65,-459 945.65,-495.4 1130.76,-495.4 1130.76,-459 945.65,-459"/>
<text xml:space="preserve" text-anchor="start" x="1020.25" y="-473.1" font-family="Arial,Liberation Sans,Helvetica,sans-serif" font-weight="bold" font-size="17.00" fill="#ffffff">user</text>
<polygon fill="#fef2f2" stroke="none" points="945.65,-431 945.65,-459 1130.76,-459 1130.76,-431 945.65,-431"/>
<polygon fill="none" stroke="#cbd5e1" points="945.65,-431 945.65,-459 1130.76,-459 1130.76,-431 945.65,-431"/>
<text xml:space="preserve" text-anchor="start" x="950.65" y="-441.5" font-family="Arial,Liberation Sans,Helvetica,sans-serif" font-weight="bold" font-size="11.00" fill="#b91c1c">PK</text>
<text xml:space="preserve" text-anchor="start" x="965.93" y="-441.5" font-family="Arial,Liberation Sans,Helvetica,sans-serif" font-size="14.00">  </text>
<text xml:space="preserve" text-anchor="start" x="981.48" y="-441.5" font-family="Arial,Liberation Sans,Helvetica,sans-serif" font-weight="bold" font-size="15.00" fill="#b91c1c">id_user</text>
<text xml:space="preserve" text-anchor="start" x="1034.84" y="-441.5" font-family="Arial,Liberation Sans,Helvetica,sans-serif" font-size="14.00">  </text>
<text xml:space="preserve" text-anchor="start" x="1050.4" y="-441.5" font-family="Arial,Liberation Sans,Helvetica,sans-serif" font-size="12.00" fill="#94a3b8">INTEGER</text>
<polygon fill="#ffffff" stroke="none" points="945.65,-403 945.65,-431 1130.76,-431 1130.76,-403 945.65,-403"/>
<polygon fill="none" stroke="#cbd5e1" points="945.65,-403 945.65,-431 1130.76,-431 1130.76,-403 945.65,-403"/>
<text xml:space="preserve" text-anchor="start" x="950.65" y="-413.5" font-family="Arial,Liberation Sans,Helvetica,sans-serif" font-size="15.00" fill="#334155">username</text>
<text xml:space="preserve" text-anchor="start" x="1017.35" y="-413.5" font-family="Arial,Liberation Sans,Helvetica,sans-serif" font-size="14.00">  </text>
<text xml:space="preserve" text-anchor="start" x="1032.91" y="-413.5" font-family="Arial,Liberation Sans,Helvetica,sans-serif" font-size="12.00" fill="#94a3b8">NVARCHAR(20)</text>
<polygon fill="#ffffff" stroke="none" points="945.65,-375 945.65,-403 1130.76,-403 1130.76,-375 945.65,-375"/>
<polygon fill="none" stroke="#cbd5e1" points="945.65,-375 945.65,-403 1130.76,-403 1130.76,-375 945.65,-375"/>
<text xml:space="preserve" text-anchor="start" x="950.65" y="-385.5" font-family="Arial,Liberation Sans,Helvetica,sans-serif" font-size="15.00" fill="#334155">password</text>
<text xml:space="preserve" text-anchor="start" x="1014.84" y="-385.5" font-family="Arial,Liberation Sans,Helvetica,sans-serif" font-size="14.00">  </text>
<text xml:space="preserve" text-anchor="start" x="1030.4" y="-385.5" font-family="Arial,Liberation Sans,Helvetica,sans-serif" font-size="12.00" fill="#94a3b8">NVARCHAR(255)</text>
<polygon fill="#eff6ff" stroke="none" points="945.65,-347 945.65,-375 1130.76,-375 1130.76,-347 945.65,-347"/>
<polygon fill="none" stroke="#cbd5e1" points="945.65,-347 945.65,-375 1130.76,-375 1130.76,-347 945.65,-347"/>
<text xml:space="preserve" text-anchor="start" x="950.65" y="-357.5" font-family="Arial,Liberation Sans,Helvetica,sans-serif" font-weight="bold" font-size="11.00" fill="#0369a1">FK</text>
<text xml:space="preserve" text-anchor="start" x="965.31" y="-357.5" font-family="Arial,Liberation Sans,Helvetica,sans-serif" font-size="14.00">  </text>
<text xml:space="preserve" text-anchor="start" x="980.87" y="-357.5" font-family="Arial,Liberation Sans,Helvetica,sans-serif" font-weight="bold" font-size="15.00" fill="#0369a1">nik</text>
<text xml:space="preserve" text-anchor="start" x="1002.54" y="-357.5" font-family="Arial,Liberation Sans,Helvetica,sans-serif" font-size="14.00">  </text>
<text xml:space="preserve" text-anchor="start" x="1018.1" y="-357.5" font-family="Arial,Liberation Sans,Helvetica,sans-serif" font-size="12.00" fill="#94a3b8">NVARCHAR(10)</text>
<polygon fill="#ffffff" stroke="none" points="945.65,-319 945.65,-347 1130.76,-347 1130.76,-319 945.65,-319"/>
<polygon fill="none" stroke="#cbd5e1" points="945.65,-319 945.65,-347 1130.76,-347 1130.76,-319 945.65,-319"/>
<text xml:space="preserve" text-anchor="start" x="950.65" y="-329.5" font-family="Arial,Liberation Sans,Helvetica,sans-serif" font-size="15.00" fill="#334155">level</text>
<text xml:space="preserve" text-anchor="start" x="981.49" y="-329.5" font-family="Arial,Liberation Sans,Helvetica,sans-serif" font-size="14.00">  </text>
<text xml:space="preserve" text-anchor="start" x="997.05" y="-329.5" font-family="Arial,Liberation Sans,Helvetica,sans-serif" font-size="12.00" fill="#94a3b8">NVARCHAR(7)</text>
<polygon fill="#ffffff" stroke="none" points="945.65,-291 945.65,-319 1130.76,-319 1130.76,-291 945.65,-291"/>
<polygon fill="none" stroke="#cbd5e1" points="945.65,-291 945.65,-319 1130.76,-319 1130.76,-291 945.65,-291"/>
<text xml:space="preserve" text-anchor="start" x="950.65" y="-301.5" font-family="Arial,Liberation Sans,Helvetica,sans-serif" font-size="15.00" fill="#334155">status</text>
<text xml:space="preserve" text-anchor="start" x="990.66" y="-301.5" font-family="Arial,Liberation Sans,Helvetica,sans-serif" font-size="14.00">  </text>
<text xml:space="preserve" text-anchor="start" x="1006.22" y="-301.5" font-family="Arial,Liberation Sans,Helvetica,sans-serif" font-size="12.00" fill="#94a3b8">NVARCHAR(8)</text>
</g>
<!-- karyawan&#45;&gt;user -->
<g id="edge5" class="edge">
<title>karyawan:e&#45;&gt;user:w</title>
<path fill="none" stroke="#64748b" stroke-width="1.4" d="M870.64,-361.8C899.5,-361.74 909.94,-361.13 936.76,-361.02"/>
<polygon fill="#64748b" stroke="#64748b" stroke-width="1.4" points="867.5,-366.05 867.49,-357.55 869.19,-357.55 869.2,-366.05 867.5,-366.05"/>
<polyline fill="none" stroke="#64748b" stroke-width="1.4" points="866.65,-361.8 870.9,-361.8"/>
<polygon fill="#64748b" stroke="#64748b" stroke-width="1.4" points="936.68,-361.02 945.18,-364.83 941.4,-361.01 944.71,-361 944.71,-361 944.71,-361 941.4,-361.01 945.17,-357.18 936.68,-361.02"/>
</g>
<!-- kategori -->
<g id="node5" class="node">
<title>kategori</title>
<polygon fill="#475569" stroke="none" points="13.34,-398 13.34,-434.4 226.81,-434.4 226.81,-398 13.34,-398"/>
<polygon fill="none" stroke="#cbd5e1" points="13.34,-398 13.34,-434.4 226.81,-434.4 226.81,-398 13.34,-398"/>
<text xml:space="preserve" text-anchor="start" x="87.01" y="-412.1" font-family="Arial,Liberation Sans,Helvetica,sans-serif" font-weight="bold" font-size="17.00" fill="#ffffff">kategori</text>
<polygon fill="#fef2f2" stroke="none" points="13.34,-370 13.34,-398 226.81,-398 226.81,-370 13.34,-370"/>
<polygon fill="none" stroke="#cbd5e1" points="13.34,-370 13.34,-398 226.81,-398 226.81,-370 13.34,-370"/>
<text xml:space="preserve" text-anchor="start" x="18.34" y="-380.5" font-family="Arial,Liberation Sans,Helvetica,sans-serif" font-weight="bold" font-size="11.00" fill="#b91c1c">PK</text>
<text xml:space="preserve" text-anchor="start" x="33.63" y="-380.5" font-family="Arial,Liberation Sans,Helvetica,sans-serif" font-size="14.00">  </text>
<text xml:space="preserve" text-anchor="start" x="49.18" y="-380.5" font-family="Arial,Liberation Sans,Helvetica,sans-serif" font-weight="bold" font-size="15.00" fill="#b91c1c">id_kategori</text>
<text xml:space="preserve" text-anchor="start" x="129.21" y="-380.5" font-family="Arial,Liberation Sans,Helvetica,sans-serif" font-size="14.00">  </text>
<text xml:space="preserve" text-anchor="start" x="144.77" y="-380.5" font-family="Arial,Liberation Sans,Helvetica,sans-serif" font-size="12.00" fill="#94a3b8">INTEGER</text>
<polygon fill="#ffffff" stroke="none" points="13.34,-342 13.34,-370 226.81,-370 226.81,-342 13.34,-342"/>
<polygon fill="none" stroke="#cbd5e1" points="13.34,-342 13.34,-370 226.81,-370 226.81,-342 13.34,-342"/>
<text xml:space="preserve" text-anchor="start" x="18.34" y="-352.5" font-family="Arial,Liberation Sans,Helvetica,sans-serif" font-size="15.00" fill="#334155">nama_kategori</text>
<text xml:space="preserve" text-anchor="start" x="117.57" y="-352.5" font-family="Arial,Liberation Sans,Helvetica,sans-serif" font-size="14.00">  </text>
<text xml:space="preserve" text-anchor="start" x="133.13" y="-352.5" font-family="Arial,Liberation Sans,Helvetica,sans-serif" font-size="12.00" fill="#94a3b8">NVARCHAR(50)</text>
</g>
<!-- sub_kategori -->
<g id="node6" class="node">
<title>sub_kategori</title>
<polygon fill="#475569" stroke="none" points="319.16,-426 319.16,-462.4 571.83,-462.4 571.83,-426 319.16,-426"/>
<polygon fill="none" stroke="#cbd5e1" points="319.16,-426 319.16,-462.4 571.83,-462.4 571.83,-426 319.16,-426"/>
<text xml:space="preserve" text-anchor="start" x="392.59" y="-440.1" font-family="Arial,Liberation Sans,Helvetica,sans-serif" font-weight="bold" font-size="17.00" fill="#ffffff">sub_kategori</text>
<polygon fill="#fef2f2" stroke="none" points="319.16,-398 319.16,-426 571.83,-426 571.83,-398 319.16,-398"/>
<polygon fill="none" stroke="#cbd5e1" points="319.16,-398 319.16,-426 571.83,-426 571.83,-398 319.16,-398"/>
<text xml:space="preserve" text-anchor="start" x="324.16" y="-408.5" font-family="Arial,Liberation Sans,Helvetica,sans-serif" font-weight="bold" font-size="11.00" fill="#b91c1c">PK</text>
<text xml:space="preserve" text-anchor="start" x="339.44" y="-408.5" font-family="Arial,Liberation Sans,Helvetica,sans-serif" font-size="14.00">  </text>
<text xml:space="preserve" text-anchor="start" x="355" y="-408.5" font-family="Arial,Liberation Sans,Helvetica,sans-serif" font-weight="bold" font-size="15.00" fill="#b91c1c">id_sub_kategori</text>
<text xml:space="preserve" text-anchor="start" x="470.03" y="-408.5" font-family="Arial,Liberation Sans,Helvetica,sans-serif" font-size="14.00">  </text>
<text xml:space="preserve" text-anchor="start" x="485.59" y="-408.5" font-family="Arial,Liberation Sans,Helvetica,sans-serif" font-size="12.00" fill="#94a3b8">INTEGER</text>
<polygon fill="#eff6ff" stroke="none" points="319.16,-370 319.16,-398 571.83,-398 571.83,-370 319.16,-370"/>
<polygon fill="none" stroke="#cbd5e1" points="319.16,-370 319.16,-398 571.83,-398 571.83,-370 319.16,-370"/>
<text xml:space="preserve" text-anchor="start" x="324.16" y="-380.5" font-family="Arial,Liberation Sans,Helvetica,sans-serif" font-weight="bold" font-size="11.00" fill="#0369a1">FK</text>
<text xml:space="preserve" text-anchor="start" x="338.82" y="-380.5" font-family="Arial,Liberation Sans,Helvetica,sans-serif" font-size="14.00">  </text>
<text xml:space="preserve" text-anchor="start" x="354.38" y="-380.5" font-family="Arial,Liberation Sans,Helvetica,sans-serif" font-weight="bold" font-size="15.00" fill="#0369a1">id_kategori</text>
<text xml:space="preserve" text-anchor="start" x="434.4" y="-380.5" font-family="Arial,Liberation Sans,Helvetica,sans-serif" font-size="14.00">  </text>
<text xml:space="preserve" text-anchor="start" x="449.96" y="-380.5" font-family="Arial,Liberation Sans,Helvetica,sans-serif" font-size="12.00" fill="#94a3b8">INTEGER</text>
<polygon fill="#ffffff" stroke="none" points="319.16,-342 319.16,-370 571.83,-370 571.83,-342 319.16,-342"/>
<polygon fill="none" stroke="#cbd5e1" points="319.16,-342 319.16,-370 571.83,-370 571.83,-342 319.16,-342"/>
<text xml:space="preserve" text-anchor="start" x="324.16" y="-352.5" font-family="Arial,Liberation Sans,Helvetica,sans-serif" font-size="15.00" fill="#334155">nama_sub_kategori</text>
<text xml:space="preserve" text-anchor="start" x="455.91" y="-352.5" font-family="Arial,Liberation Sans,Helvetica,sans-serif" font-size="14.00">  </text>
<text xml:space="preserve" text-anchor="start" x="471.47" y="-352.5" font-family="Arial,Liberation Sans,Helvetica,sans-serif" font-size="12.00" fill="#94a3b8">NVARCHAR(100)</text>
</g>
<!-- kategori&#45;&gt;sub_kategori -->
<g id="edge6" class="edge">
<title>kategori:e&#45;&gt;sub_kategori:w</title>
<path fill="none" stroke="#64748b" stroke-width="1.4" d="M231.99,-384C266.11,-384 278.03,-384 310.06,-384"/>
<polygon fill="#64748b" stroke="#64748b" stroke-width="1.4" points="228.66,-388.25 228.66,-379.75 230.36,-379.75 230.36,-388.25 228.66,-388.25"/>
<polyline fill="none" stroke="#64748b" stroke-width="1.4" points="227.81,-384 232.06,-384"/>
<polygon fill="#64748b" stroke="#64748b" stroke-width="1.4" points="310.19,-384 318.69,-387.83 314.91,-384 318.22,-384 318.22,-384 318.22,-384 314.91,-384 318.69,-380.18 310.19,-384"/>
</g>
</g>

  </g>
  <rect x="64" y="1037" width="26" height="18" rx="3" fill="#FEF2F2" stroke="#FECACA"/>
  <text x="100" y="1052" font-size="17" fill="#475569">PK  Primary key</text>
  <rect x="263" y="1037" width="26" height="18" rx="3" fill="#EFF6FF" stroke="#BFDBFE"/>
  <text x="299" y="1052" font-size="17" fill="#475569">FK  Foreign key</text>
  <line x1="462" y1="1046" x2="504" y2="1046" stroke="#64748b" stroke-width="2"/>
  <text x="514" y="1052" font-size="17" fill="#475569">Relasi (ujung bercabang = sisi &quot;banyak&quot;)</text>
</svg>
